<?xml version="1.0" standalone="no"?>
<!DOCTYPE svg PUBLIC "-//W3C//DTD SVG 20010904//EN"
 "http://www.w3.org/TR/2001/REC-SVG-20010904/DTD/svg10.dtd">
<svg version="1.0" xmlns="http://www.w3.org/2000/svg"
 width="418.000000pt" height="77.000000pt" viewBox="0 0 418.000000 77.000000"
 preserveAspectRatio="xMidYMid meet">

<g transform="translate(0.000000,77.000000) scale(0.100000,-0.100000)"
fill="#6b21a8" stroke="none">
<path d="M158 723 c-3 -36 -5 -38 -40 -41 l-38 -3 0 -75 0 -74 -35 0 -35 0 0
-70 0 -70 35 0 c33 0 35 2 35 35 0 34 1 35 40 35 39 0 40 -1 40 -35 0 -33 2
-35 35 -35 33 0 35 2 35 35 0 34 1 35 40 35 39 0 40 -1 40 -35 0 -33 2 -35 35
-35 33 0 35 2 35 35 0 34 1 35 40 35 39 0 40 -1 40 -35 0 -33 2 -35 35 -35
l35 0 0 70 0 70 -40 0 -40 0 0 75 0 75 -35 0 c-34 0 -35 1 -35 40 0 39 -1 40
-34 40 -33 0 -35 -2 -38 -37 -3 -36 -5 -38 -40 -41 l-38 -3 0 40 c0 40 -1 41
-34 41 -33 0 -35 -2 -38 -37z m72 -153 l0 -40 -40 0 -40 0 0 40 0 40 40 0 40
0 0 -40z m150 0 l0 -40 -40 0 -40 0 0 40 0 40 40 0 40 0 0 -40z"/>
<path d="M530 645 l0 -35 150 0 150 0 0 -265 0 -265 -340 0 -340 0 0 110 0
110 -35 0 -35 0 0 -145 0 -145 410 0 410 0 0 335 0 335 -185 0 -185 0 0 -35z"/>
<path d="M1170 564 c0 -4 -20 -118 -45 -255 -25 -137 -45 -256 -45 -264 0 -11
12 -15 49 -15 49 0 50 1 53 32 3 31 6 33 45 36 41 3 42 2 45 -30 3 -32 4 -33
55 -36 45 -3 51 -1 47 15 -2 10 -22 119 -44 243 -22 124 -43 237 -46 253 -5
25 -9 27 -60 27 -30 0 -54 -3 -54 -6z m75 -313 l8 -81 -27 0 c-30 0 -31 2 -14
119 13 97 23 87 33 -38z"/>
<path d="M1429 549 c-19 -19 -20 -29 -17 -255 3 -220 4 -237 22 -250 14 -10
51 -14 133 -14 l113 0 0 155 0 155 -50 0 -50 0 0 -110 0 -110 -35 0 -35 0 2
172 3 173 63 3 63 3 -6 37 c-11 64 -8 62 -100 62 -72 0 -88 -3 -106 -21z"/>
<path d="M1730 300 l0 -270 50 0 50 0 0 270 0 270 -50 0 -50 0 0 -270z"/>
<path d="M1880 300 l0 -270 99 0 100 0 8 43 9 42 -53 3 -53 3 0 224 0 225 -55
0 -55 0 0 -270z"/>
<path d="M2140 300 l0 -270 99 0 100 0 8 43 9 42 -58 3 -58 3 0 64 0 65 45 0
45 0 0 45 0 45 -45 0 -45 0 0 65 0 65 61 0 61 0 -7 33 c-14 71 -7 67 -116 67
l-99 0 0 -270z"/>
<path d="M2501 526 c-6 -25 -11 -47 -11 -50 0 -3 16 -6 35 -6 l35 0 0 -220 0
-220 50 0 50 0 0 220 0 220 35 0 c19 0 35 3 35 6 0 3 -5 25 -11 50 l-11 44
-98 0 -98 0 -11 -44z"/>
<path d="M2805 538 c-3 -18 -25 -140 -49 -270 l-42 -238 52 0 c52 0 53 0 56
32 3 31 6 33 46 36 l42 3 0 -35 0 -36 50 0 c39 0 50 3 50 16 0 9 -20 128 -45
265 -25 137 -45 251 -45 254 0 3 -25 5 -55 5 -53 0 -54 -1 -60 -32z m80 -293
l7 -75 -26 0 c-31 0 -32 10 -14 127 13 90 21 77 33 -52z"/>
<path d="M3062 554 c-21 -14 -22 -22 -22 -143 0 -92 4 -132 13 -139 7 -6 35
-12 62 -14 l50 -3 3 -67 3 -68 -61 0 c-65 0 -65 -1 -54 -59 l7 -31 87 0 c119
0 120 1 120 163 0 90 -4 128 -12 134 -7 4 -38 10 -68 13 l-55 5 0 60 0 60 68
3 68 3 -6 32 c-14 70 -9 67 -98 67 -59 0 -89 -5 -105 -16z"/>
<path d="M3330 300 l0 -270 50 0 50 0 0 110 c0 88 3 110 14 110 14 0 19 -17
46 -157 l13 -63 54 0 c52 0 55 1 50 23 -4 12 -18 77 -32 144 l-26 122 30 114
c17 62 31 119 31 125 0 8 -19 12 -50 12 -43 0 -50 -3 -55 -22 -3 -13 -16 -65
-28 -117 -32 -137 -47 -131 -47 18 l0 121 -50 0 -50 0 0 -270z"/>
<path d="M3821 518 c-6 -29 -26 -143 -46 -253 -19 -110 -37 -208 -39 -217 -4
-15 4 -18 49 -18 53 0 54 0 57 32 3 31 5 33 43 33 38 0 40 -2 43 -33 3 -31 4
-32 53 -32 35 0 49 4 49 14 0 7 -20 125 -45 262 -25 137 -45 252 -45 257 0 4
-24 7 -54 7 l-55 0 -10 -52z m84 -273 l7 -75 -27 0 -28 0 7 68 c4 37 9 83 13
102 l6 35 8 -28 c4 -15 10 -61 14 -102z"/>
<path d="M4080 300 l0 -270 50 0 50 0 0 270 0 270 -50 0 -50 0 0 -270z"/>
</g>
</svg>
